<?xml version="1.0" encoding="UTF-8" standalone="no"?>
<!-- Created with Inkscape (http://www.inkscape.org/) -->

<svg
   width="38.687969mm"
   height="38.653217mm"
   viewBox="0 0 38.687969 38.653217"
   version="1.1"
   id="svg5"
   xmlns="http://www.w3.org/2000/svg"
   xmlns:svg="http://www.w3.org/2000/svg">
  <defs
     id="defs2" />
  <g
     id="layer1"
     transform="translate(-107.1367,-40.490342)">
    <path
       style="fill:#000000;stroke-width:0.264583"
       d="m 115.33798,78.665641 c -2.09798,-0.67081 -3.59341,-1.60376 -5.02655,-3.1359 -2.19877,-2.35066 -3.15731,-4.85837 -3.14987,-8.24061 0.0163,-7.430231 7.18219,-12.880391 14.44714,-10.988111 0.86124,0.22432 1.61478,0.45675 1.67454,0.51651 0.0598,0.0598 -0.33093,0.62037 -0.86821,1.24579 -1.20068,1.39768 -2.64024,4.36477 -3.02912,6.243381 -0.67478,3.25969 -0.25949,6.70268 1.17125,9.71042 0.48456,1.01864 1.3206,2.36379 1.85787,2.98921 0.53728,0.62542 0.92797,1.18603 0.86821,1.24579 -0.0598,0.0598 -0.8133,0.29219 -1.67454,0.51651 -2.0507,0.53414 -4.39866,0.49558 -6.27072,-0.10299 z m 16.11333,0.23773 c -4.70813,-1.18634 -8.43584,-5.51876 -8.83391,-10.26696 -0.14828,-1.76867 0.21832,-4.53678 0.70517,-5.324511 0.14447,-0.23375 0.55776,-0.0526 1.47168,0.644991 5.71908,4.36547 13.04626,4.36547 18.76534,0 1.46029,-1.114661 1.54765,-1.063181 2.0184,1.18955 1.17192,5.60799 -1.91821,11.16018 -7.43232,13.354 -1.3861,0.55147 -5.19504,0.78073 -6.69436,0.40293 z m 1.00582,-15.2443 c -1.15152,-0.23981 -2.77813,-0.695701 -2.77813,-0.778621 0,-0.0482 0.65118,-1.044 1.44707,-2.21283 1.95416,-2.86987 2.64609,-5.12157 2.64609,-8.61092 0,-3.48818 -0.69207,-5.74125 -2.64411,-8.608 l -1.44507,-2.12223 0.72561,-0.28545 c 2.30972,-0.9086 6.10777,-0.66999 8.70866,0.54711 6.22121,2.91126 8.53427,10.51559 5.02172,16.50929 -0.87631,1.49532 -3.22447,3.6407 -4.79051,4.37682 -2.34578,1.102651 -5.0519,1.567911 -6.89133,1.184831 z m -24.7473,-7.787061 c -0.18021,-0.43506 -0.40242,-1.47149 -0.4938,-2.30317 -0.85514,-7.78306 5.31402,-13.86446 13.16125,-12.97402 7.00855,0.79527 11.86092,8.78651 9.3299,15.36518 l -0.28019,0.7283 -1.39535,-1.06454 c -5.56984,-4.24934 -12.92526,-4.24064 -18.63225,0.0221 l -1.36191,1.01723 z"
       id="path1426" />
  </g>
</svg>
